<mxfile host="app.diagrams.net" agent="Mozilla/5.0 (Macintosh; Intel Mac OS X 10_15_7) AppleWebKit/537.36 (KHTML, like Gecko) Chrome/126.0.0.0 YaBrowser/24.7.0.0 Safari/537.36" version="24.7.12">
  <diagram name="Страница — 1" id="qp21_vosHOt9QAr2bRQ9">
    <mxGraphModel dx="1306" dy="761" grid="1" gridSize="10" guides="1" tooltips="1" connect="1" arrows="1" fold="1" page="1" pageScale="1" pageWidth="827" pageHeight="1169" math="0" shadow="0">
      <root>
        <mxCell id="0" />
        <mxCell id="1" parent="0" />
        <mxCell id="06-HcFqA8SYsVZfLSVtg-1" value="Начало" style="rounded=1;whiteSpace=wrap;html=1;arcSize=50;" parent="1" vertex="1">
          <mxGeometry x="210" y="200" width="120" height="60" as="geometry" />
        </mxCell>
        <mxCell id="06-HcFqA8SYsVZfLSVtg-13" style="edgeStyle=orthogonalEdgeStyle;rounded=0;orthogonalLoop=1;jettySize=auto;html=1;exitX=0.5;exitY=1;exitDx=0;exitDy=0;entryX=0.5;entryY=0;entryDx=0;entryDy=0;endArrow=none;endFill=0;" parent="1" source="06-HcFqA8SYsVZfLSVtg-2" target="06-HcFqA8SYsVZfLSVtg-4" edge="1">
          <mxGeometry relative="1" as="geometry" />
        </mxCell>
        <mxCell id="06-HcFqA8SYsVZfLSVtg-2" value="Токенизировать входную строку" style="shape=process;whiteSpace=wrap;html=1;backgroundOutline=1;" parent="1" vertex="1">
          <mxGeometry x="210" y="380" width="120" height="60" as="geometry" />
        </mxCell>
        <mxCell id="06-HcFqA8SYsVZfLSVtg-12" style="edgeStyle=orthogonalEdgeStyle;rounded=0;orthogonalLoop=1;jettySize=auto;html=1;exitX=0.5;exitY=1;exitDx=0;exitDy=0;exitPerimeter=0;entryX=0.5;entryY=0;entryDx=0;entryDy=0;endArrow=none;endFill=0;" parent="1" source="06-HcFqA8SYsVZfLSVtg-3" target="06-HcFqA8SYsVZfLSVtg-2" edge="1">
          <mxGeometry relative="1" as="geometry" />
        </mxCell>
        <mxCell id="06-HcFqA8SYsVZfLSVtg-3" value="Чтение арифм. выражения" style="shape=card;whiteSpace=wrap;html=1;" parent="1" vertex="1">
          <mxGeometry x="210" y="290" width="120" height="60" as="geometry" />
        </mxCell>
        <mxCell id="06-HcFqA8SYsVZfLSVtg-14" style="edgeStyle=orthogonalEdgeStyle;rounded=0;orthogonalLoop=1;jettySize=auto;html=1;exitX=0.5;exitY=1;exitDx=0;exitDy=0;entryX=0.5;entryY=0;entryDx=0;entryDy=0;endArrow=none;endFill=0;" parent="1" source="06-HcFqA8SYsVZfLSVtg-4" target="06-HcFqA8SYsVZfLSVtg-5" edge="1">
          <mxGeometry relative="1" as="geometry" />
        </mxCell>
        <mxCell id="06-HcFqA8SYsVZfLSVtg-30" style="edgeStyle=orthogonalEdgeStyle;rounded=0;orthogonalLoop=1;jettySize=auto;html=1;exitX=1;exitY=0.5;exitDx=0;exitDy=0;entryX=0.5;entryY=0;entryDx=0;entryDy=0;endArrow=none;endFill=0;" parent="1" source="06-HcFqA8SYsVZfLSVtg-4" target="06-HcFqA8SYsVZfLSVtg-9" edge="1">
          <mxGeometry relative="1" as="geometry">
            <Array as="points">
              <mxPoint x="460" y="520" />
              <mxPoint x="460" y="830" />
              <mxPoint x="270" y="830" />
            </Array>
          </mxGeometry>
        </mxCell>
        <mxCell id="06-HcFqA8SYsVZfLSVtg-4" value="stack.Count &amp;gt; 1&lt;div&gt;&amp;amp;&amp;amp;&lt;/div&gt;&lt;div&gt;tokens.Count &amp;gt; 2&lt;/div&gt;" style="rhombus;whiteSpace=wrap;html=1;" parent="1" vertex="1">
          <mxGeometry x="180" y="470" width="180" height="100" as="geometry" />
        </mxCell>
        <mxCell id="06-HcFqA8SYsVZfLSVtg-15" style="edgeStyle=orthogonalEdgeStyle;rounded=0;orthogonalLoop=1;jettySize=auto;html=1;exitX=0;exitY=0.5;exitDx=0;exitDy=0;entryX=0.5;entryY=0;entryDx=0;entryDy=0;endArrow=none;endFill=0;" parent="1" source="06-HcFqA8SYsVZfLSVtg-5" target="06-HcFqA8SYsVZfLSVtg-6" edge="1">
          <mxGeometry relative="1" as="geometry" />
        </mxCell>
        <mxCell id="06-HcFqA8SYsVZfLSVtg-16" style="edgeStyle=orthogonalEdgeStyle;rounded=0;orthogonalLoop=1;jettySize=auto;html=1;exitX=1;exitY=0.5;exitDx=0;exitDy=0;entryX=0.5;entryY=0;entryDx=0;entryDy=0;endArrow=none;endFill=0;" parent="1" source="06-HcFqA8SYsVZfLSVtg-5" target="06-HcFqA8SYsVZfLSVtg-7" edge="1">
          <mxGeometry relative="1" as="geometry" />
        </mxCell>
        <mxCell id="06-HcFqA8SYsVZfLSVtg-5" value="Определить отношение предшествования" style="rhombus;whiteSpace=wrap;html=1;" parent="1" vertex="1">
          <mxGeometry x="180" y="590" width="180" height="105" as="geometry" />
        </mxCell>
        <mxCell id="06-HcFqA8SYsVZfLSVtg-28" style="edgeStyle=orthogonalEdgeStyle;rounded=0;orthogonalLoop=1;jettySize=auto;html=1;exitX=0.5;exitY=1;exitDx=0;exitDy=0;" parent="1" source="06-HcFqA8SYsVZfLSVtg-6" edge="1">
          <mxGeometry relative="1" as="geometry">
            <mxPoint x="270" y="450" as="targetPoint" />
            <Array as="points">
              <mxPoint x="150" y="800" />
              <mxPoint x="70" y="800" />
              <mxPoint x="70" y="581" />
              <mxPoint x="71" y="581" />
              <mxPoint x="71" y="450" />
            </Array>
          </mxGeometry>
        </mxCell>
        <mxCell id="06-HcFqA8SYsVZfLSVtg-6" value="Свертка" style="shape=process;whiteSpace=wrap;html=1;backgroundOutline=1;" parent="1" vertex="1">
          <mxGeometry x="90" y="710" width="120" height="60" as="geometry" />
        </mxCell>
        <mxCell id="06-HcFqA8SYsVZfLSVtg-29" style="edgeStyle=orthogonalEdgeStyle;rounded=0;orthogonalLoop=1;jettySize=auto;html=1;exitX=0.5;exitY=1;exitDx=0;exitDy=0;endArrow=none;endFill=0;" parent="1" source="06-HcFqA8SYsVZfLSVtg-7" edge="1">
          <mxGeometry relative="1" as="geometry">
            <mxPoint x="150" y="800" as="targetPoint" />
            <Array as="points">
              <mxPoint x="390" y="800" />
            </Array>
          </mxGeometry>
        </mxCell>
        <mxCell id="06-HcFqA8SYsVZfLSVtg-7" value="Перенос" style="shape=process;whiteSpace=wrap;html=1;backgroundOutline=1;" parent="1" vertex="1">
          <mxGeometry x="330" y="710" width="120" height="60" as="geometry" />
        </mxCell>
        <mxCell id="06-HcFqA8SYsVZfLSVtg-19" style="edgeStyle=orthogonalEdgeStyle;rounded=0;orthogonalLoop=1;jettySize=auto;html=1;entryX=0.5;entryY=0;entryDx=0;entryDy=0;exitX=0.496;exitY=0.859;exitDx=0;exitDy=0;exitPerimeter=0;endArrow=none;endFill=0;" parent="1" source="06-HcFqA8SYsVZfLSVtg-9" target="06-HcFqA8SYsVZfLSVtg-10" edge="1">
          <mxGeometry relative="1" as="geometry" />
        </mxCell>
        <mxCell id="06-HcFqA8SYsVZfLSVtg-9" value="tokens[0]" style="shape=document;whiteSpace=wrap;html=1;boundedLbl=1;" parent="1" vertex="1">
          <mxGeometry x="210" y="850" width="120" height="70" as="geometry" />
        </mxCell>
        <mxCell id="06-HcFqA8SYsVZfLSVtg-10" value="Конец" style="rounded=1;whiteSpace=wrap;html=1;arcSize=50;" parent="1" vertex="1">
          <mxGeometry x="210" y="940" width="120" height="60" as="geometry" />
        </mxCell>
        <mxCell id="06-HcFqA8SYsVZfLSVtg-11" style="edgeStyle=orthogonalEdgeStyle;rounded=0;orthogonalLoop=1;jettySize=auto;html=1;exitX=0.5;exitY=1;exitDx=0;exitDy=0;entryX=0.5;entryY=0;entryDx=0;entryDy=0;entryPerimeter=0;endArrow=none;endFill=0;" parent="1" source="06-HcFqA8SYsVZfLSVtg-1" target="06-HcFqA8SYsVZfLSVtg-3" edge="1">
          <mxGeometry relative="1" as="geometry" />
        </mxCell>
        <mxCell id="06-HcFqA8SYsVZfLSVtg-31" style="edgeStyle=orthogonalEdgeStyle;rounded=0;orthogonalLoop=1;jettySize=auto;html=1;exitX=0.5;exitY=1;exitDx=0;exitDy=0;entryX=0.5;entryY=0;entryDx=0;entryDy=0;endArrow=none;endFill=0;" parent="1" source="06-HcFqA8SYsVZfLSVtg-21" target="06-HcFqA8SYsVZfLSVtg-24" edge="1">
          <mxGeometry relative="1" as="geometry" />
        </mxCell>
        <mxCell id="06-HcFqA8SYsVZfLSVtg-21" value="Перенос" style="rounded=1;whiteSpace=wrap;html=1;arcSize=50;" parent="1" vertex="1">
          <mxGeometry x="580" y="220" width="120" height="60" as="geometry" />
        </mxCell>
        <mxCell id="06-HcFqA8SYsVZfLSVtg-34" style="edgeStyle=orthogonalEdgeStyle;rounded=0;orthogonalLoop=1;jettySize=auto;html=1;exitX=0;exitY=0.5;exitDx=0;exitDy=0;" parent="1" source="06-HcFqA8SYsVZfLSVtg-22" edge="1">
          <mxGeometry relative="1" as="geometry">
            <mxPoint x="640" y="290" as="targetPoint" />
            <Array as="points">
              <mxPoint x="510" y="510" />
              <mxPoint x="510" y="290" />
            </Array>
          </mxGeometry>
        </mxCell>
        <mxCell id="06-HcFqA8SYsVZfLSVtg-35" style="edgeStyle=orthogonalEdgeStyle;rounded=0;orthogonalLoop=1;jettySize=auto;html=1;exitX=0.5;exitY=1;exitDx=0;exitDy=0;entryX=0.5;entryY=0;entryDx=0;entryDy=0;endArrow=none;endFill=0;" parent="1" source="06-HcFqA8SYsVZfLSVtg-22" target="06-HcFqA8SYsVZfLSVtg-26" edge="1">
          <mxGeometry relative="1" as="geometry" />
        </mxCell>
        <mxCell id="06-HcFqA8SYsVZfLSVtg-22" value="!validOperations.Contains(token)" style="rhombus;whiteSpace=wrap;html=1;" parent="1" vertex="1">
          <mxGeometry x="530" y="460" width="220" height="100" as="geometry" />
        </mxCell>
        <mxCell id="06-HcFqA8SYsVZfLSVtg-33" style="edgeStyle=orthogonalEdgeStyle;rounded=0;orthogonalLoop=1;jettySize=auto;html=1;exitX=0.5;exitY=1;exitDx=0;exitDy=0;entryX=0.5;entryY=0;entryDx=0;entryDy=0;endArrow=none;endFill=0;" parent="1" source="06-HcFqA8SYsVZfLSVtg-23" target="06-HcFqA8SYsVZfLSVtg-22" edge="1">
          <mxGeometry relative="1" as="geometry" />
        </mxCell>
        <mxCell id="06-HcFqA8SYsVZfLSVtg-23" value="tokens.RemoveAt(0)" style="rounded=0;whiteSpace=wrap;html=1;" parent="1" vertex="1">
          <mxGeometry x="570" y="380" width="140" height="60" as="geometry" />
        </mxCell>
        <mxCell id="06-HcFqA8SYsVZfLSVtg-32" style="edgeStyle=orthogonalEdgeStyle;rounded=0;orthogonalLoop=1;jettySize=auto;html=1;exitX=0.5;exitY=1;exitDx=0;exitDy=0;entryX=0.5;entryY=0;entryDx=0;entryDy=0;endArrow=none;endFill=0;" parent="1" source="06-HcFqA8SYsVZfLSVtg-24" target="06-HcFqA8SYsVZfLSVtg-23" edge="1">
          <mxGeometry relative="1" as="geometry" />
        </mxCell>
        <mxCell id="06-HcFqA8SYsVZfLSVtg-24" value="stack.Push(tokens[0])" style="rounded=0;whiteSpace=wrap;html=1;" parent="1" vertex="1">
          <mxGeometry x="570" y="300" width="140" height="60" as="geometry" />
        </mxCell>
        <mxCell id="06-HcFqA8SYsVZfLSVtg-26" value="Возврат" style="rounded=1;whiteSpace=wrap;html=1;arcSize=50;" parent="1" vertex="1">
          <mxGeometry x="580" y="590" width="120" height="60" as="geometry" />
        </mxCell>
        <mxCell id="06-HcFqA8SYsVZfLSVtg-44" style="edgeStyle=orthogonalEdgeStyle;rounded=0;orthogonalLoop=1;jettySize=auto;html=1;exitX=0.5;exitY=1;exitDx=0;exitDy=0;entryX=0.5;entryY=0;entryDx=0;entryDy=0;endArrow=none;endFill=0;" parent="1" source="06-HcFqA8SYsVZfLSVtg-36" target="06-HcFqA8SYsVZfLSVtg-37" edge="1">
          <mxGeometry relative="1" as="geometry" />
        </mxCell>
        <mxCell id="06-HcFqA8SYsVZfLSVtg-36" value="Свертка" style="rounded=1;whiteSpace=wrap;html=1;arcSize=50;" parent="1" vertex="1">
          <mxGeometry x="890" y="220" width="120" height="60" as="geometry" />
        </mxCell>
        <mxCell id="06-HcFqA8SYsVZfLSVtg-45" style="edgeStyle=orthogonalEdgeStyle;rounded=0;orthogonalLoop=1;jettySize=auto;html=1;exitX=0.5;exitY=1;exitDx=0;exitDy=0;entryX=0.5;entryY=0;entryDx=0;entryDy=0;endArrow=none;endFill=0;" parent="1" source="06-HcFqA8SYsVZfLSVtg-37" target="06-HcFqA8SYsVZfLSVtg-38" edge="1">
          <mxGeometry relative="1" as="geometry" />
        </mxCell>
        <mxCell id="06-HcFqA8SYsVZfLSVtg-37" value="opName = stack.Pop()" style="rounded=0;whiteSpace=wrap;html=1;" parent="1" vertex="1">
          <mxGeometry x="880" y="300" width="140" height="60" as="geometry" />
        </mxCell>
        <mxCell id="06-HcFqA8SYsVZfLSVtg-49" style="edgeStyle=orthogonalEdgeStyle;rounded=0;orthogonalLoop=1;jettySize=auto;html=1;exitX=1;exitY=0.5;exitDx=0;exitDy=0;entryX=0;entryY=0.5;entryDx=0;entryDy=0;endArrow=none;endFill=0;" parent="1" source="06-HcFqA8SYsVZfLSVtg-38" target="06-HcFqA8SYsVZfLSVtg-39" edge="1">
          <mxGeometry relative="1" as="geometry" />
        </mxCell>
        <mxCell id="06-HcFqA8SYsVZfLSVtg-50" style="edgeStyle=orthogonalEdgeStyle;rounded=0;orthogonalLoop=1;jettySize=auto;html=1;exitX=0.5;exitY=1;exitDx=0;exitDy=0;entryX=0.5;entryY=0;entryDx=0;entryDy=0;endArrow=none;endFill=0;" parent="1" source="06-HcFqA8SYsVZfLSVtg-38" target="06-HcFqA8SYsVZfLSVtg-41" edge="1">
          <mxGeometry relative="1" as="geometry" />
        </mxCell>
        <mxCell id="06-HcFqA8SYsVZfLSVtg-38" value="opName == &quot;(&quot;" style="rhombus;whiteSpace=wrap;html=1;" parent="1" vertex="1">
          <mxGeometry x="890" y="375" width="120" height="70" as="geometry" />
        </mxCell>
        <mxCell id="06-HcFqA8SYsVZfLSVtg-48" style="edgeStyle=orthogonalEdgeStyle;rounded=0;orthogonalLoop=1;jettySize=auto;html=1;exitX=1;exitY=0.5;exitDx=0;exitDy=0;endArrow=classic;endFill=1;" parent="1" source="06-HcFqA8SYsVZfLSVtg-39" edge="1">
          <mxGeometry relative="1" as="geometry">
            <mxPoint x="950" y="710" as="targetPoint" />
            <Array as="points">
              <mxPoint x="1200" y="410" />
              <mxPoint x="1200" y="710" />
              <mxPoint x="950" y="710" />
            </Array>
          </mxGeometry>
        </mxCell>
        <mxCell id="06-HcFqA8SYsVZfLSVtg-39" value="tokens.RemoveAt(1)" style="rounded=0;whiteSpace=wrap;html=1;" parent="1" vertex="1">
          <mxGeometry x="1040" y="380" width="140" height="60" as="geometry" />
        </mxCell>
        <mxCell id="06-HcFqA8SYsVZfLSVtg-52" style="edgeStyle=orthogonalEdgeStyle;rounded=0;orthogonalLoop=1;jettySize=auto;html=1;exitX=0.5;exitY=1;exitDx=0;exitDy=0;entryX=0.5;entryY=0;entryDx=0;entryDy=0;endArrow=none;endFill=0;" parent="1" source="06-HcFqA8SYsVZfLSVtg-40" target="06-HcFqA8SYsVZfLSVtg-42" edge="1">
          <mxGeometry relative="1" as="geometry" />
        </mxCell>
        <mxCell id="06-HcFqA8SYsVZfLSVtg-40" value="result = operations[opName](firstOperand, secondOperand)" style="rounded=0;whiteSpace=wrap;html=1;" parent="1" vertex="1">
          <mxGeometry x="770" y="560" width="360" height="60" as="geometry" />
        </mxCell>
        <mxCell id="06-HcFqA8SYsVZfLSVtg-53" style="edgeStyle=orthogonalEdgeStyle;rounded=0;orthogonalLoop=1;jettySize=auto;html=1;exitX=0.5;exitY=1;exitDx=0;exitDy=0;entryX=0.5;entryY=0;entryDx=0;entryDy=0;endArrow=none;endFill=0;" parent="1" source="06-HcFqA8SYsVZfLSVtg-41" target="06-HcFqA8SYsVZfLSVtg-40" edge="1">
          <mxGeometry relative="1" as="geometry" />
        </mxCell>
        <mxCell id="06-HcFqA8SYsVZfLSVtg-41" value="firstOperand = stack.Pop()" style="rounded=0;whiteSpace=wrap;html=1;" parent="1" vertex="1">
          <mxGeometry x="870" y="480" width="160" height="60" as="geometry" />
        </mxCell>
        <mxCell id="06-HcFqA8SYsVZfLSVtg-51" style="edgeStyle=orthogonalEdgeStyle;rounded=0;orthogonalLoop=1;jettySize=auto;html=1;exitX=0.5;exitY=1;exitDx=0;exitDy=0;entryX=0.5;entryY=0;entryDx=0;entryDy=0;endArrow=none;endFill=0;" parent="1" source="06-HcFqA8SYsVZfLSVtg-42" target="06-HcFqA8SYsVZfLSVtg-43" edge="1">
          <mxGeometry relative="1" as="geometry" />
        </mxCell>
        <mxCell id="06-HcFqA8SYsVZfLSVtg-42" value="tokens[0] = result" style="rounded=0;whiteSpace=wrap;html=1;" parent="1" vertex="1">
          <mxGeometry x="880" y="635" width="140" height="60" as="geometry" />
        </mxCell>
        <mxCell id="06-HcFqA8SYsVZfLSVtg-43" value="Возврат" style="rounded=1;whiteSpace=wrap;html=1;arcSize=50;" parent="1" vertex="1">
          <mxGeometry x="890" y="720" width="120" height="60" as="geometry" />
        </mxCell>
        <mxCell id="4FoAU6dcv9P-K8wQEl16-1" value="Да" style="text;html=1;align=center;verticalAlign=middle;whiteSpace=wrap;rounded=0;" vertex="1" parent="1">
          <mxGeometry x="270" y="560" width="60" height="30" as="geometry" />
        </mxCell>
        <mxCell id="4FoAU6dcv9P-K8wQEl16-2" value="Нет" style="text;html=1;align=center;verticalAlign=middle;whiteSpace=wrap;rounded=0;" vertex="1" parent="1">
          <mxGeometry x="360" y="495" width="60" height="25" as="geometry" />
        </mxCell>
        <mxCell id="4FoAU6dcv9P-K8wQEl16-3" value="Да" style="text;html=1;align=center;verticalAlign=middle;whiteSpace=wrap;rounded=0;" vertex="1" parent="1">
          <mxGeometry x="580" y="550" width="60" height="30" as="geometry" />
        </mxCell>
        <mxCell id="4FoAU6dcv9P-K8wQEl16-4" value="Нет" style="text;html=1;align=center;verticalAlign=middle;whiteSpace=wrap;rounded=0;" vertex="1" parent="1">
          <mxGeometry x="500" y="470" width="60" height="25" as="geometry" />
        </mxCell>
        <mxCell id="4FoAU6dcv9P-K8wQEl16-5" value="Нет" style="text;html=1;align=center;verticalAlign=middle;whiteSpace=wrap;rounded=0;" vertex="1" parent="1">
          <mxGeometry x="900" y="445" width="60" height="25" as="geometry" />
        </mxCell>
        <mxCell id="4FoAU6dcv9P-K8wQEl16-6" value="Да" style="text;html=1;align=center;verticalAlign=middle;whiteSpace=wrap;rounded=0;" vertex="1" parent="1">
          <mxGeometry x="990" y="410" width="60" height="30" as="geometry" />
        </mxCell>
        <mxCell id="4FoAU6dcv9P-K8wQEl16-7" value="&amp;lt;" style="text;html=1;align=center;verticalAlign=middle;whiteSpace=wrap;rounded=0;" vertex="1" parent="1">
          <mxGeometry x="340" y="605" width="60" height="30" as="geometry" />
        </mxCell>
        <mxCell id="4FoAU6dcv9P-K8wQEl16-8" value="&amp;gt;, =" style="text;html=1;align=center;verticalAlign=middle;whiteSpace=wrap;rounded=0;" vertex="1" parent="1">
          <mxGeometry x="120" y="605" width="60" height="30" as="geometry" />
        </mxCell>
      </root>
    </mxGraphModel>
  </diagram>
</mxfile>
